<svg width="36" height="36" viewBox="0 0 36 36" fill="none" xmlns="http://www.w3.org/2000/svg">
<path d="M32.0625 28.125C32.0625 28.125 28.125 23.0625 28.125 18.5625V11.8125C28.125 9.12718 27.0583 6.55185 25.1595 4.65304C23.2606 2.75424 20.6853 1.6875 18 1.6875C15.3147 1.6875 12.7393 2.75424 10.8405 4.65304C8.94174 6.55185 7.875 9.12718 7.875 11.8125V18.5625C7.875 23.0625 3.9375 28.125 3.9375 28.125H32.0625Z" stroke="#212121" stroke-width="2" stroke-miterlimit="10" stroke-linecap="square"/>
<path d="M21.375 30.9375C21.375 31.8326 21.0194 32.6911 20.3865 33.324C19.7536 33.9569 18.8951 34.3125 18 34.3125C17.1049 34.3125 16.2464 33.9569 15.6135 33.324C14.9806 32.6911 14.625 31.8326 14.625 30.9375" stroke="#212121" stroke-width="2" stroke-miterlimit="10" stroke-linecap="square"/>
</svg>
